<?xml version="1.0" encoding="UTF-8"?>
<!DOCTYPE svg PUBLIC "-//W3C//DTD SVG 1.1//EN" "http://www.w3.org/Graphics/SVG/1.1/DTD/svg11.dtd">
<svg xmlns="http://www.w3.org/2000/svg" version="1.1" width="500px" height="500px" style="shape-rendering:geometricPrecision; text-rendering:geometricPrecision; image-rendering:optimizeQuality; fill-rule:evenodd; clip-rule:evenodd" xmlns:xlink="http://www.w3.org/1999/xlink">
<g><path style="opacity:1" fill="#120d17" d="M -0.5,-0.5 C 166.167,-0.5 332.833,-0.5 499.5,-0.5C 499.5,4.16667 499.5,8.83333 499.5,13.5C 332.833,13.5 166.167,13.5 -0.5,13.5C -0.5,8.83333 -0.5,4.16667 -0.5,-0.5 Z"/></g>
<g><path style="opacity:1" fill="#14101b" d="M -0.5,13.5 C 166.167,13.5 332.833,13.5 499.5,13.5C 499.5,28.1667 499.5,42.8333 499.5,57.5C 332.833,57.5 166.167,57.5 -0.5,57.5C -0.5,42.8333 -0.5,28.1667 -0.5,13.5 Z"/></g>
<g><path style="opacity:1" fill="#f2f2f2" d="M 157.5,60.5 C 167.506,60.3335 177.506,60.5002 187.5,61C 197.702,71.3688 208.035,81.5355 218.5,91.5C 225.833,99.5 233.5,107.167 241.5,114.5C 250.833,124.5 260.5,134.167 270.5,143.5C 283.833,157.5 297.5,171.167 311.5,184.5C 317.631,191.131 323.964,197.631 330.5,204C 321.298,213.035 312.298,222.202 303.5,231.5C 300.468,232.999 298.968,235.332 299,238.5C 307.698,246.032 315.865,254.032 323.5,262.5C 333.965,273.465 344.631,284.298 355.5,295C 354.944,295.383 354.611,295.883 354.5,296.5C 334.833,315.5 315.5,334.833 296.5,354.5C 285.5,364.833 274.833,375.5 264.5,386.5C 263.504,372.01 263.171,357.343 263.5,342.5C 278.965,326.535 294.632,310.701 310.5,295C 298.667,283.167 286.833,271.333 275,259.5C 246.298,288.035 217.798,316.701 189.5,345.5C 188.502,376.329 188.169,407.329 188.5,438.5C 178.167,438.5 167.833,438.5 157.5,438.5C 157.5,312.5 157.5,186.5 157.5,60.5 Z"/></g>
<g><path style="opacity:1" fill="#171421" d="M -0.5,57.5 C 166.167,57.5 332.833,57.5 499.5,57.5C 499.5,68.8333 499.5,80.1667 499.5,91.5C 405.833,91.5 312.167,91.5 218.5,91.5C 208.035,81.5355 197.702,71.3688 187.5,61C 177.506,60.5002 167.506,60.3335 157.5,60.5C 156.506,70.6532 156.172,80.9865 156.5,91.5C 104.167,91.5 51.8333,91.5 -0.5,91.5C -0.5,80.1667 -0.5,68.8333 -0.5,57.5 Z"/></g>
<g><path style="opacity:1" fill="#191725" d="M -0.5,91.5 C 51.8333,91.5 104.167,91.5 156.5,91.5C 156.5,99.1667 156.5,106.833 156.5,114.5C 104.167,114.5 51.8333,114.5 -0.5,114.5C -0.5,106.833 -0.5,99.1667 -0.5,91.5 Z"/></g>
<g><path style="opacity:1" fill="#191726" d="M 218.5,91.5 C 312.167,91.5 405.833,91.5 499.5,91.5C 499.5,99.1667 499.5,106.833 499.5,114.5C 413.5,114.5 327.5,114.5 241.5,114.5C 233.5,107.167 225.833,99.5 218.5,91.5 Z"/></g>
<g><path style="opacity:1" fill="#1b1929" d="M -0.5,114.5 C 51.8333,114.5 104.167,114.5 156.5,114.5C 156.5,124.167 156.5,133.833 156.5,143.5C 104.167,143.5 51.8333,143.5 -0.5,143.5C -0.5,133.833 -0.5,124.167 -0.5,114.5 Z"/></g>
<g><path style="opacity:1" fill="#1b1a29" d="M 241.5,114.5 C 327.5,114.5 413.5,114.5 499.5,114.5C 499.5,124.167 499.5,133.833 499.5,143.5C 423.167,143.5 346.833,143.5 270.5,143.5C 260.5,134.167 250.833,124.5 241.5,114.5 Z"/></g>
<g><path style="opacity:1" fill="#1e1d2e" d="M -0.5,143.5 C 51.8333,143.5 104.167,143.5 156.5,143.5C 156.5,157.167 156.5,170.833 156.5,184.5C 104.167,184.5 51.8333,184.5 -0.5,184.5C -0.5,170.833 -0.5,157.167 -0.5,143.5 Z"/></g>
<g><path style="opacity:1" fill="#1e1d2e" d="M 189.5,109.5 C 214.527,134.194 239.527,158.861 264.5,183.5C 239.672,184.498 214.672,184.831 189.5,184.5C 189.5,159.5 189.5,134.5 189.5,109.5 Z"/></g>
<g><path style="opacity:1" fill="#1e1d2e" d="M 270.5,143.5 C 346.833,143.5 423.167,143.5 499.5,143.5C 499.5,157.167 499.5,170.833 499.5,184.5C 436.833,184.5 374.167,184.5 311.5,184.5C 297.5,171.167 283.833,157.5 270.5,143.5 Z"/></g>
<g><path style="opacity:1" fill="#212235" d="M -0.5,184.5 C 51.8333,184.5 104.167,184.5 156.5,184.5C 156.5,200.5 156.5,216.5 156.5,232.5C 104.167,232.5 51.8333,232.5 -0.5,232.5C -0.5,216.5 -0.5,200.5 -0.5,184.5 Z"/></g>
<g><path style="opacity:1" fill="#212235" d="M 264.5,183.5 C 271.632,190.131 278.632,196.964 285.5,204C 275.965,213.702 266.298,223.202 256.5,232.5C 234.167,232.5 211.833,232.5 189.5,232.5C 189.5,216.5 189.5,200.5 189.5,184.5C 214.672,184.831 239.672,184.498 264.5,183.5 Z"/></g>
<g><path style="opacity:1" fill="#212235" d="M 311.5,184.5 C 374.167,184.5 436.833,184.5 499.5,184.5C 499.5,200.5 499.5,216.5 499.5,232.5C 433.998,232.832 368.665,232.499 303.5,231.5C 312.298,222.202 321.298,213.035 330.5,204C 323.964,197.631 317.631,191.131 311.5,184.5 Z"/></g>
<g><path style="opacity:1" fill="#24263a" d="M -0.5,232.5 C 51.8333,232.5 104.167,232.5 156.5,232.5C 156.5,242.5 156.5,252.5 156.5,262.5C 104.167,262.5 51.8333,262.5 -0.5,262.5C -0.5,252.5 -0.5,242.5 -0.5,232.5 Z"/></g>
<g><path style="opacity:1" fill="#26283c" d="M 189.5,232.5 C 211.833,232.5 234.167,232.5 256.5,232.5C 234.833,254.833 212.833,276.833 190.5,298.5C 189.503,276.673 189.169,254.673 189.5,232.5 Z"/></g>
<g><path style="opacity:1" fill="#24263b" d="M 303.5,231.5 C 368.665,232.499 433.998,232.832 499.5,232.5C 499.5,242.5 499.5,252.5 499.5,262.5C 440.833,262.5 382.167,262.5 323.5,262.5C 315.865,254.032 307.698,246.032 299,238.5C 298.968,235.332 300.468,232.999 303.5,231.5 Z"/></g>
<g><path style="opacity:1" fill="#6c6d79" d="M 189.5,109.5 C 189.5,134.5 189.5,159.5 189.5,184.5C 189.5,200.5 189.5,216.5 189.5,232.5C 189.169,254.673 189.503,276.673 190.5,298.5C 190.217,299.289 189.717,299.956 189,300.5C 188.169,236.096 188.336,172.43 189.5,109.5 Z"/></g>
<g><path style="opacity:1" fill="#26293f" d="M -0.5,262.5 C 51.8333,262.5 104.167,262.5 156.5,262.5C 156.5,274.167 156.5,285.833 156.5,297.5C 104.167,297.5 51.8333,297.5 -0.5,297.5C -0.5,285.833 -0.5,274.167 -0.5,262.5 Z"/></g>
<g><path style="opacity:1" fill="#272a3f" d="M 323.5,262.5 C 382.167,262.5 440.833,262.5 499.5,262.5C 499.5,274.167 499.5,285.833 499.5,297.5C 450.997,297.832 402.664,297.499 354.5,296.5C 354.611,295.883 354.944,295.383 355.5,295C 344.631,284.298 333.965,273.465 323.5,262.5 Z"/></g>
<g><path style="opacity:1" fill="#2a2e46" d="M -0.5,297.5 C 51.8333,297.5 104.167,297.5 156.5,297.5C 156.5,316.833 156.5,336.167 156.5,355.5C 104.167,355.5 51.8333,355.5 -0.5,355.5C -0.5,336.167 -0.5,316.833 -0.5,297.5 Z"/></g>
<g><path style="opacity:1" fill="#2a2e46" d="M 263.5,342.5 C 262.515,346.634 262.182,350.968 262.5,355.5C 238.167,355.5 213.833,355.5 189.5,355.5C 189.5,352.167 189.5,348.833 189.5,345.5C 217.798,316.701 246.298,288.035 275,259.5C 286.833,271.333 298.667,283.167 310.5,295C 294.632,310.701 278.965,326.535 263.5,342.5 Z"/></g>
<g><path style="opacity:1" fill="#2a2f46" d="M 354.5,296.5 C 402.664,297.499 450.997,297.832 499.5,297.5C 499.5,316.833 499.5,336.167 499.5,355.5C 431.665,355.833 363.998,355.499 296.5,354.5C 315.5,334.833 334.833,315.5 354.5,296.5 Z"/></g>
<g><path style="opacity:1" fill="#6b6f80" d="M 263.5,342.5 C 263.171,357.343 263.504,372.01 264.5,386.5C 264.44,387.043 264.107,387.376 263.5,387.5C 262.501,376.854 262.168,366.187 262.5,355.5C 262.182,350.968 262.515,346.634 263.5,342.5 Z"/></g>
<g><path style="opacity:1" fill="#2e344d" d="M -0.5,355.5 C 51.8333,355.5 104.167,355.5 156.5,355.5C 156.5,371.5 156.5,387.5 156.5,403.5C 104.167,403.5 51.8333,403.5 -0.5,403.5C -0.5,387.5 -0.5,371.5 -0.5,355.5 Z"/></g>
<g><path style="opacity:1" fill="#2e344e" d="M 296.5,354.5 C 363.998,355.499 431.665,355.833 499.5,355.5C 499.5,371.5 499.5,387.5 499.5,403.5C 396.167,403.5 292.833,403.5 189.5,403.5C 189.5,387.5 189.5,371.5 189.5,355.5C 213.833,355.5 238.167,355.5 262.5,355.5C 262.168,366.187 262.501,376.854 263.5,387.5C 264.107,387.376 264.44,387.043 264.5,386.5C 274.833,375.5 285.5,364.833 296.5,354.5 Z"/></g>
<g><path style="opacity:1" fill="#323955" d="M 157.5,60.5 C 157.5,186.5 157.5,312.5 157.5,438.5C 167.833,438.5 178.167,438.5 188.5,438.5C 188.169,407.329 188.502,376.329 189.5,345.5C 189.5,348.833 189.5,352.167 189.5,355.5C 189.5,371.5 189.5,387.5 189.5,403.5C 292.833,403.5 396.167,403.5 499.5,403.5C 499.5,417.167 499.5,430.833 499.5,444.5C 332.833,444.5 166.167,444.5 -0.5,444.5C -0.5,430.833 -0.5,417.167 -0.5,403.5C 51.8333,403.5 104.167,403.5 156.5,403.5C 156.5,387.5 156.5,371.5 156.5,355.5C 156.5,336.167 156.5,316.833 156.5,297.5C 156.5,285.833 156.5,274.167 156.5,262.5C 156.5,252.5 156.5,242.5 156.5,232.5C 156.5,216.5 156.5,200.5 156.5,184.5C 156.5,170.833 156.5,157.167 156.5,143.5C 156.5,133.833 156.5,124.167 156.5,114.5C 156.5,106.833 156.5,99.1667 156.5,91.5C 156.172,80.9865 156.506,70.6532 157.5,60.5 Z"/></g>
<g><path style="opacity:1" fill="#343c5a" d="M -0.5,444.5 C 166.167,444.5 332.833,444.5 499.5,444.5C 499.5,456.5 499.5,468.5 499.5,480.5C 332.833,480.5 166.167,480.5 -0.5,480.5C -0.5,468.5 -0.5,456.5 -0.5,444.5 Z"/></g>
<g><path style="opacity:1" fill="#363f5e" d="M -0.5,480.5 C 166.167,480.5 332.833,480.5 499.5,480.5C 499.5,486.833 499.5,493.167 499.5,499.5C 332.833,499.5 166.167,499.5 -0.5,499.5C -0.5,493.167 -0.5,486.833 -0.5,480.5 Z"/></g>
</svg>
